<svg width="63" height="56" viewBox="0 0 63 56" fill="none" xmlns="http://www.w3.org/2000/svg">
<path d="M15.8364 37.9009V50.1751C15.8364 52.0673 17.3721 53.5984 19.27 53.5984H39.8571C41.755 53.5984 43.2907 52.0673 43.2907 50.1751V8.08029C43.2907 6.18807 41.755 4.65695 39.8571 4.65695H19.27C17.3721 4.65695 15.8364 6.18807 15.8364 8.08029V31.3539" stroke="white" stroke-width="3.19676" stroke-linecap="round" stroke-linejoin="round"/>
<path d="M26.0047 10.5202H33.6309Z" fill="white"/>
<path d="M26.0047 10.5202H33.6309" stroke="white" stroke-width="3.19676" stroke-linecap="round" stroke-linejoin="round"/>
<path d="M23.9708 45.4139C23.9817 44.006 26.4911 42.8755 29.5797 42.8928C32.6682 42.9136 35.1667 44.0718 35.1558 45.4797C35.1449 46.8911 32.7301 48.0112 29.6379 47.9904C26.5458 47.9731 23.9598 46.8218 23.9708 45.4139" fill="white"/>
<path d="M50.2463 6.18915C55.2368 6.1236 58.838 7.38358 60.0866 10.0492C62.9769 16.1888 52.8083 27.1644 36.7687 34.9136C20.7327 42.6701 4.96009 44.2432 2.07332 38.1109C0.0958815 33.9122 4.46212 27.3101 12.5595 21.0758L15.9731 18.7088" stroke="#5FC846" stroke-width="3.19676" stroke-linecap="round" stroke-linejoin="round"/>
<path d="M54.9842 1.59842L49.9 5.81586L54.0775 11.2848" stroke="#5FC846" stroke-width="3.19676" stroke-linecap="round" stroke-linejoin="round"/>
<path d="M10.7525 28.6431L15.8385 33.2062L20.9207 28.618" stroke="white" stroke-width="3.19676" stroke-linecap="round" stroke-linejoin="round"/>
<path d="M16.0906 7.71548V31.1666Z" fill="white"/>
<path d="M16.0906 7.71548V31.1666" stroke="white" stroke-width="3.19676" stroke-linecap="round" stroke-linejoin="round"/>
</svg>
