<svg width="51" height="43" viewBox="0 0 51 43" fill="none" xmlns="http://www.w3.org/2000/svg">
<path d="M13.6991 5.78451H19.8897H13.6991Z" fill="white"/>
<path d="M13.6991 5.78451H19.8897" stroke="white" stroke-width="2.63622" stroke-linecap="round" stroke-linejoin="round"/>
<path d="M43.826 14.0798L44.7089 12.8165L47.523 11.4148L48.7784 12.5933L47.2888 15.2441L45.9463 16.075" stroke="white" stroke-width="2.63622" stroke-linecap="round" stroke-linejoin="round"/>
<path d="M28.5564 36.2697L33.9216 30.8328L28.5564 36.2697Z" fill="white"/>
<path d="M28.5564 36.2697L33.9216 30.8328" stroke="white" stroke-width="2.63622" stroke-linecap="round" stroke-linejoin="round"/>
<path d="M28.146 25.0076L17.7853 33.003C15.7437 34.8049 15.6314 37.8635 17.5348 39.7962C19.4382 41.729 22.669 41.8353 24.7107 40.0334L26.0698 38.6676" stroke="white" stroke-width="2.63622" stroke-linecap="round" stroke-linejoin="round"/>
<path d="M32.6834 23.2736L43.8303 14.1335L45.89 16.0733L35.6381 26.1724" stroke="white" stroke-width="2.63622" stroke-linecap="round" stroke-linejoin="round"/>
<path d="M24.9861 33.0512C25.6564 33.7201 25.0262 35.3538 23.5824 36.7C22.1357 38.0462 20.4226 38.5962 19.7523 37.9273C19.082 37.2583 19.6692 35.6689 21.1188 34.3227C22.5654 32.9765 24.3158 32.3822 24.9861 33.0512Z" fill="white"/>
<path d="M1.31815 19.5546L5.44371 16.0759L9.57228 19.5711" stroke="white" stroke-width="2.63622" stroke-linecap="round" stroke-linejoin="round"/>
<path d="M34.3343 36.2697L28.7678 36.0604L28.5564 30.8328" stroke="white" stroke-width="2.63622" stroke-linecap="round" stroke-linejoin="round"/>
<path d="M5.44705 16.0759V35.9824C5.44705 37.4294 6.69995 38.6002 8.24834 38.6002H16.5901" stroke="white" stroke-width="2.63622" stroke-linecap="round" stroke-linejoin="round"/>
<path d="M27.7332 13.7453V3.90279C27.7332 2.47413 26.4866 1.31812 24.946 1.31812H8.23429C6.69367 1.31812 5.44705 2.47413 5.44705 3.90279V12.2185" stroke="white" stroke-width="2.63622" stroke-linecap="round" stroke-linejoin="round"/>
<path fill-rule="evenodd" clip-rule="evenodd" d="M34.0372 30.6182L43.8002 40.2621C44.5962 41.0927 45.9512 41.1562 46.8321 40.4084C47.713 39.6579 47.7803 38.3775 46.9872 37.5497L27.5842 18.3806C28.5704 16.5015 28.3509 14.2305 26.8379 12.6522C25.3249 11.0738 22.9515 10.6406 20.8707 11.3718L24.6254 15.2929L21.3097 18.1212L17.5695 14.2195C16.6184 16.0876 16.8467 18.3281 18.3421 19.8927C19.8815 21.5014 22.3164 21.918 24.4264 21.1261L28.1344 24.7878L34.0372 30.6182Z" stroke="#5FC846" stroke-width="2.63622" stroke-linecap="round" stroke-linejoin="round"/>
</svg>
